<svg xmlns="http://www.w3.org/2000/svg" width="21.078" height="28" viewBox="0 0 21.078 28"><defs><style>.a{fill:#fff;}.b{fill:#231f20;}.c{fill:#026bb9;}</style></defs><g transform="translate(-673 -453)"><g transform="translate(473.338 -72.69)"><path class="a" d="M218.063,549.379v2.3a1.307,1.307,0,0,1-1.3,1.3h-1.325a1.307,1.307,0,0,1-1.3-1.3v-2.3"/><path class="b" d="M216.759,553.69h-1.325a2.01,2.01,0,0,1-2.008-2.008v-2.3h1.408v2.3a.6.6,0,0,0,.6.6h1.325a.6.6,0,0,0,.6-.6v-2.3h1.408v2.3A2.011,2.011,0,0,1,216.759,553.69Z"/><path class="a" d="M206.273,549.379v2.3a1.307,1.307,0,0,1-1.3,1.3h-1.325a1.307,1.307,0,0,1-1.3-1.3v-2.3"/><path class="b" d="M204.969,553.69h-1.325a2.011,2.011,0,0,1-2.008-2.008v-2.3h1.408v2.3a.6.6,0,0,0,.6.6h1.325a.6.6,0,0,0,.6-.6v-2.3h1.408v2.3A2.011,2.011,0,0,1,204.969,553.69Z"/><rect class="a" width="19.67" height="23.271" rx="7.978" transform="translate(200.366 526.395)"/><path class="b" d="M217.79,550.37H202.613a2.954,2.954,0,0,1-2.951-2.95V528.641a2.955,2.955,0,0,1,2.951-2.951H217.79a2.954,2.954,0,0,1,2.95,2.951V547.42A2.953,2.953,0,0,1,217.79,550.37ZM202.613,527.1a1.544,1.544,0,0,0-1.543,1.543V547.42a1.544,1.544,0,0,0,1.543,1.542H217.79a1.544,1.544,0,0,0,1.542-1.542V528.641a1.544,1.544,0,0,0-1.542-1.543Z"/><rect class="a" width="15.77" height="11.566" rx="5.783" transform="translate(202.316 529.06)"/><path class="b" d="M216.3,541.331H204.1a2.5,2.5,0,0,1-2.492-2.492v-7.991a2.5,2.5,0,0,1,2.492-2.492H216.3a2.494,2.494,0,0,1,2.492,2.492v7.991A2.494,2.494,0,0,1,216.3,541.331ZM204.1,529.764a1.086,1.086,0,0,0-1.084,1.084v7.991a1.085,1.085,0,0,0,1.084,1.084H216.3a1.085,1.085,0,0,0,1.084-1.084v-7.991a1.086,1.086,0,0,0-1.084-1.084Z"/><path d="M213.6,546.359h-6.8a.7.7,0,0,1,0-1.408h6.8a.7.7,0,0,1,0,1.408Z"/><circle class="c" cx="1.552" cy="1.552" r="1.552" transform="translate(201.612 544.104)"/><circle class="c" cx="1.552" cy="1.552" r="1.552" transform="translate(215.688 544.104)"/></g></g></svg>