<svg xmlns="http://www.w3.org/2000/svg" xmlns:xlink="http://www.w3.org/1999/xlink" width="27.059" height="19.998" viewBox="0 0 27.059 19.998"><defs><style>.a{fill:#707070;stroke:#707070;stroke-width:0.25px;}.b{clip-path:url(#a);}</style><clipPath id="a"><rect class="a" width="27.059" height="19.998"/></clipPath></defs><g transform="translate(12)"><g class="b" transform="translate(-12)"><path class="a" d="M23.253,15.29h-12.1a3.509,3.509,0,0,1-3.483-2.545l-.008-.035L5.666,3.565c-.257-1.231-1.019-1.209-1.053-1.2l-.063,0H1.181A1.181,1.181,0,0,1,1.181,0H4.525a3.509,3.509,0,0,1,3.45,3.071l1.983,9.095a1.142,1.142,0,0,0,1.193.762h12.1a1.181,1.181,0,1,1,0,2.361" transform="translate(0 0)"/><path class="a" d="M93.8,27.074H83.148a1.181,1.181,0,0,1-1.155-.936L80.459,18.9a1.181,1.181,0,0,1,1.155-1.426h15.26A1.181,1.181,0,0,1,97.96,19.12l-3.075,7.236a1.18,1.18,0,0,1-1.087.719M84.1,24.713h8.913l2.072-4.874H83.071Z" transform="translate(-70.994 -15.426)"/><path class="a" d="M83.891,140.03A1.894,1.894,0,1,1,82,138.136a1.894,1.894,0,0,1,1.894,1.894" transform="translate(-70.703 -121.926)"/><path class="a" d="M177.649,140.03a1.894,1.894,0,1,1-1.894-1.894,1.894,1.894,0,0,1,1.894,1.894" transform="translate(-153.459 -121.926)"/></g></g></svg>