<svg xmlns="http://www.w3.org/2000/svg" width="34.507" height="24" viewBox="0 0 34.507 24"><defs><style>.a{fill:#fff;}.b{fill:#231f20;}.c{fill:#026bb9;}</style></defs><g transform="translate(-666 -428)"><g transform="translate(467.566 66)"><rect class="a" width="32.789" height="22.283" rx="6.824" transform="translate(199.293 362.859)"/><path class="b" d="M229.153,386H202.222a3.793,3.793,0,0,1-3.788-3.788V365.788A3.793,3.793,0,0,1,202.222,362h26.931a3.793,3.793,0,0,1,3.788,3.788v16.424A3.793,3.793,0,0,1,229.153,386Zm-26.931-22.283a2.073,2.073,0,0,0-2.07,2.071v16.424a2.073,2.073,0,0,0,2.07,2.071h26.931a2.073,2.073,0,0,0,2.07-2.071V365.788a2.073,2.073,0,0,0-2.07-2.071Z"/><rect class="b" width="33.182" height="5.152" transform="translate(199.096 365.969)"/><circle class="c" cx="2.377" cy="2.377" r="2.377" transform="translate(219.128 375.489)"/><circle class="c" cx="2.377" cy="2.377" r="2.377" transform="translate(223.128 375.489)"/><path d="M212.933,378.725h-9.44a.859.859,0,0,1,0-1.718h9.44a.859.859,0,0,1,0,1.718Z"/></g></g></svg>