<svg xmlns="http://www.w3.org/2000/svg" width="31.997" height="31.996" viewBox="0 0 31.997 31.996"><defs><style>.a{fill:#231f20;}.b{fill:#026bb9;}</style></defs><g transform="translate(-932 -3243)"><g transform="translate(932 3243)"><g transform="translate(0 0)"><path class="a" d="M418.747,594.685a3.083,3.083,0,0,1-2.186-.9l-16.545-16.545a3.1,3.1,0,0,1-.9-2.306l.343-8.923a3.107,3.107,0,0,1,2.972-2.973l8.925-.341a3.085,3.085,0,0,1,2.305.9L430.2,580.14a3.095,3.095,0,0,1,0,4.374l-9.267,9.267A3.083,3.083,0,0,1,418.747,594.685Zm-7.278-29.827h-.036l-8.925.343a.928.928,0,0,0-.887.887l-.343,8.925a.927.927,0,0,0,.269.688l16.545,16.545a.926.926,0,0,0,1.307,0l9.266-9.267a.922.922,0,0,0,0-1.305l-16.545-16.545A.928.928,0,0,0,411.469,564.858Z" transform="translate(-399.109 -562.689)"/></g><g transform="translate(8.335 8.482)"><path class="b" d="M409.711,570.836l-1.133,1.133,1.588,1.588-.8.8-1.588-1.588-1.451,1.451-.971-.971,4.194-4.194,2.558,2.558-.815.815Z" transform="translate(-405.361 -569.051)"/><path class="b" d="M411.8,571.3l1.763,1.761a2.213,2.213,0,0,1,.505.752,2.112,2.112,0,0,1,.153.812,2.034,2.034,0,0,1-.175.792,2.242,2.242,0,0,1-.473.688,2.161,2.161,0,0,1-1.024.588,1.974,1.974,0,0,1-1.163-.067l-.485,2.164-1.127-1.127.42-1.905-.456-.456-1.163,1.163-.971-.971Zm-.605,3.877a.9.9,0,0,0,.336.216.917.917,0,0,0,.371.053,1.021,1.021,0,0,0,.367-.1,1.176,1.176,0,0,0,.324-.228,1.136,1.136,0,0,0,.227-.324,1,1,0,0,0,.1-.364.923.923,0,0,0-.269-.708l-.665-.665-1.451,1.45Z" transform="translate(-404.612 -568.302)"/><path class="b" d="M414.708,575.763l-.952.952,1.588,1.588-.761.761L413,577.476l-.923.923,1.588,1.588-.78.779-2.559-2.558,4.194-4.194,2.56,2.559-.78.78Z" transform="translate(-403.708 -567.398)"/><path class="b" d="M416.978,578.031l-.953.953,1.588,1.588-.761.76-1.588-1.588-.923.922,1.588,1.588-.779.78-2.558-2.558,4.194-4.194,2.558,2.558-.779.779Z" transform="translate(-402.951 -566.641)"/></g><g transform="translate(5.781 5.693)"><circle class="a" cx="1.736" cy="1.736" r="1.736"/></g></g></g></svg>