<svg xmlns="http://www.w3.org/2000/svg" width="12.864" height="16" viewBox="0 0 12.864 16"><defs><style>.a{fill:red;}</style></defs><path class="a" d="M118.613,514.374a8.085,8.085,0,0,0,3.354-.3c2.263-.859,5.711-3.623,2.825-9.455a6.789,6.789,0,0,0-2.393-2.453.287.287,0,0,0-.421.235,3.08,3.08,0,0,1-1.283,2.3.192.192,0,0,1-.3-.182,5.472,5.472,0,0,0-3.832-6.076.289.289,0,0,0-.381.358c.295.949.512,3-1.677,5.61-3.045,3.627-1.163,8.9,3.684,9.9A4.288,4.288,0,0,0,118.613,514.374Z" transform="translate(-113.029 -498.425)"/></svg>