<svg xmlns="http://www.w3.org/2000/svg" width="24" height="24" viewBox="0 0 24 24"><g transform="translate(-769.519 -1250.272)"><circle cx="1.407" cy="1.407" r="1.407" transform="translate(786.465 1254.557)"/><path d="M781.617,1256.362a5.91,5.91,0,1,0,5.911,5.91A5.916,5.916,0,0,0,781.617,1256.362Zm0,9.7a3.786,3.786,0,1,1,3.786-3.786A3.79,3.79,0,0,1,781.617,1266.058Z"/><path d="M786.309,1274.272h-9.582a7.216,7.216,0,0,1-7.208-7.208v-9.583a7.216,7.216,0,0,1,7.208-7.209h9.582a7.218,7.218,0,0,1,7.21,7.209v9.583A7.217,7.217,0,0,1,786.309,1274.272Zm-9.582-21.742a4.957,4.957,0,0,0-4.951,4.951v9.583a4.956,4.956,0,0,0,4.951,4.95h9.582a4.957,4.957,0,0,0,4.952-4.95v-9.583a4.957,4.957,0,0,0-4.952-4.951Z"/></g></svg>