<svg xmlns="http://www.w3.org/2000/svg" width="20.976" height="28" viewBox="0 0 20.976 28"><defs><style>.a{fill:#fff;}.b{fill:#026bb9;}.c{fill:#231f20;}</style></defs><g transform="translate(-673 -404)"><g transform="translate(124.151 310.691)"><line class="a" x2="17.716" transform="translate(550.49 116.534)"/><path class="b" d="M568.205,117.154H550.49a.62.62,0,1,1,0-1.241h17.715a.62.62,0,1,1,0,1.241Z"/><line class="a" x2="19.735" transform="translate(549.469 118.933)"/><path class="b" d="M569.2,119.553H549.469a.621.621,0,0,1,0-1.241H569.2a.621.621,0,1,1,0,1.241Z"/><rect class="a" width="17.337" height="20.512" rx="7.978" transform="translate(550.49 93.929)"/><path class="c" d="M565.847,115.062H552.47a2.6,2.6,0,0,1-2.6-2.6V95.91a2.6,2.6,0,0,1,2.6-2.6h13.377a2.6,2.6,0,0,1,2.6,2.6v16.551A2.6,2.6,0,0,1,565.847,115.062ZM552.47,94.55a1.361,1.361,0,0,0-1.36,1.36v16.551a1.361,1.361,0,0,0,1.36,1.36h13.377a1.361,1.361,0,0,0,1.36-1.36V95.91a1.361,1.361,0,0,0-1.36-1.36Z"/><rect class="a" width="13.9" height="7.659" rx="3.83" transform="translate(552.208 99.497)"/><path class="c" d="M564.532,107.777H553.784a2.2,2.2,0,0,1-2.2-2.2v-4.507a2.2,2.2,0,0,1,2.2-2.2h10.748a2.2,2.2,0,0,1,2.2,2.2v4.507A2.2,2.2,0,0,1,564.532,107.777Zm-10.748-7.659a.956.956,0,0,0-.955.955v4.507a.956.956,0,0,0,.955.956h10.748a.957.957,0,0,0,.956-.956v-4.507a.956.956,0,0,0-.956-.955Z"/><line class="a" x2="5.991" transform="translate(556.163 96.962)"/><path class="b" d="M562.154,97.582h-5.991a.62.62,0,1,1,0-1.241h5.991a.62.62,0,1,1,0,1.241Z"/><circle class="b" cx="1.368" cy="1.368" r="1.368" transform="translate(554.345 109.538)"/><path class="b" d="M555.713,112.894a1.988,1.988,0,1,1,1.988-1.988A1.991,1.991,0,0,1,555.713,112.894Zm0-2.735a.747.747,0,1,0,.747.747A.748.748,0,0,0,555.713,110.159Z"/><circle class="b" cx="1.368" cy="1.368" r="1.368" transform="translate(561.236 109.538)"/><path class="b" d="M562.6,112.894a1.988,1.988,0,1,1,1.988-1.988A1.991,1.991,0,0,1,562.6,112.894Zm0-2.735a.747.747,0,1,0,.747.747A.749.749,0,0,0,562.6,110.159Z"/><line class="a" x1="2.916" y2="6.247" transform="translate(549.554 114.441)"/><path class="c" d="M549.554,121.309a.622.622,0,0,1-.562-.883l2.915-6.247a.621.621,0,1,1,1.125.525l-2.915,6.247A.623.623,0,0,1,549.554,121.309Z"/><line class="a" x2="2.916" y2="6.247" transform="translate(566.108 114.441)"/><path class="c" d="M569.024,121.309a.623.623,0,0,1-.563-.358l-2.915-6.247a.621.621,0,1,1,1.125-.525l2.915,6.247a.622.622,0,0,1-.562.883Z"/></g></g></svg>