<svg xmlns="http://www.w3.org/2000/svg" width="22.209" height="28" viewBox="0 0 22.209 28"><defs><style>.a{fill:#fff;}.b{fill:#231f20;}.c{fill:#026bb9;}</style></defs><g transform="translate(-534 -330)"><g transform="translate(216.023 208.694)"><rect class="a" width="17.459" height="26.353" rx="8.49" transform="translate(321.904 122.13)"/><rect class="a" width="11.712" height="15.647" rx="4.245" transform="translate(324.777 127.483)"/><rect class="b" width="1.867" height="1.867" rx="0.933" transform="translate(329.7 144.702)"/><line class="a" x2="3.624" transform="translate(328.822 124.822)"/><path class="b" d="M332.445,125.646h-3.624a.824.824,0,0,1,0-1.647h3.624a.824.824,0,1,1,0,1.647Z"/><path class="c" d="M328.224,140.328a.809.809,0,0,1-.39-.1,5.665,5.665,0,0,1-.144-9.89.823.823,0,1,1,.825,1.425,4.019,4.019,0,0,0,.1,7.016.824.824,0,0,1-.393,1.549Z"/><circle class="c" cx="1.815" cy="1.815" r="1.815" transform="translate(328.589 133.462)"/><path class="c" d="M330.4,137.916a2.638,2.638,0,1,1,2.639-2.639A2.642,2.642,0,0,1,330.4,137.916Zm0-3.63a.992.992,0,1,0,.991.991A.993.993,0,0,0,330.4,134.286Z"/><path class="b" d="M335.091,126.659h-8.915a2.224,2.224,0,0,0-2.222,2.222v.8a7.5,7.5,0,0,1,1.347-1,.823.823,0,0,1,.39-.107.576.576,0,0,1,.485-.268h8.915a.576.576,0,0,1,.575.575v12.85a.582.582,0,0,1-.575.575h-8.915a.584.584,0,0,1-.532-.361.813.813,0,0,1-.152-.06,7.535,7.535,0,0,1-1.538-1.1v.949a2.224,2.224,0,0,0,2.222,2.222h8.915a2.224,2.224,0,0,0,2.222-2.222v-12.85A2.225,2.225,0,0,0,335.091,126.659Z"/><path class="b" d="M336.566,121.306H324.7a3.624,3.624,0,0,0-3.62,3.62v3.037a9.986,9.986,0,0,1,1.647-1.277v-1.76a1.975,1.975,0,0,1,1.973-1.973h11.866a1.975,1.975,0,0,1,1.973,1.973v20.76a1.975,1.975,0,0,1-1.973,1.973H324.7a1.975,1.975,0,0,1-1.973-1.973v-1.961a10.074,10.074,0,0,1-1.647-1.271v3.232a3.624,3.624,0,0,0,3.62,3.62h11.866a3.624,3.624,0,0,0,3.62-3.62v-20.76A3.624,3.624,0,0,0,336.566,121.306Z"/><path class="c" d="M325.883,141.984a.808.808,0,0,1-.391-.1,7.563,7.563,0,0,1-.191-13.2.823.823,0,0,1,.825,1.425,5.917,5.917,0,0,0,.149,10.33.823.823,0,0,1-.392,1.548Z"/><path class="c" d="M323.63,144.124a.815.815,0,0,1-.391-.1,10.024,10.024,0,0,1-.253-17.5.823.823,0,0,1,.824,1.426,8.378,8.378,0,0,0,.212,14.626.823.823,0,0,1-.392,1.548Z"/></g></g></svg>