<svg xmlns="http://www.w3.org/2000/svg" width="22.16" height="21" viewBox="0 0 22.16 21"><defs><style>.a{fill:#707070;stroke:#707070;}</style></defs><g transform="translate(-3747.408 -4423.859)"><path class="a" d="M3758.488,4444.359a1.559,1.559,0,0,1-1.043-.4c-.7-.624-6.872-6.18-8.471-8.93a7.738,7.738,0,0,1-.771-5.851,6.646,6.646,0,0,1,3.3-4.119,5.549,5.549,0,0,1,2.691-.7,6.508,6.508,0,0,0,8.594,0,5.55,5.55,0,0,1,2.691.7,6.647,6.647,0,0,1,3.3,4.119,7.739,7.739,0,0,1-.772,5.851c-1.594,2.742-7.771,8.305-8.47,8.93h0A1.563,1.563,0,0,1,3758.488,4444.359Zm-4.3-18.067a3.643,3.643,0,0,0-1.762.463,4.76,4.76,0,0,0-2.364,2.942,5.777,5.777,0,0,0,.58,4.361c1.139,1.958,5.491,6.12,7.843,8.241,2.354-2.123,6.708-6.289,7.843-8.241a5.767,5.767,0,0,0,.58-4.361,4.755,4.755,0,0,0-2.363-2.942,3.644,3.644,0,0,0-1.763-.463,5.451,5.451,0,0,0-3.312,1.374,1.557,1.557,0,0,1-1.969,0A5.456,5.456,0,0,0,3754.191,4426.292Z"/></g></svg>