<svg xmlns="http://www.w3.org/2000/svg" width="23.163" height="28" viewBox="0 0 23.163 28"><defs><style>.a{fill:#026bb9;}.b{fill:#fff;}.c{fill:#231f20;}</style></defs><g transform="translate(-375.641 -94.366)"><path class="a" d="M397.862,105.176a.927.927,0,0,1-.483-.135l-3.338-2.006c-2.285-1.156-5.546-.446-10.063,1.073-5.435,1.829-8.011-1.148-8.118-1.275a.94.94,0,0,1,1.435-1.216c.09.1,1.94,2.1,6.083.71,5.129-1.726,8.662-2.434,11.549-.951l.055.031,3.366,2.023a.94.94,0,0,1-.486,1.746Z"/><path class="a" d="M397.862,110.711a.936.936,0,0,1-.483-.134l-3.338-2.007c-2.285-1.156-5.546-.446-10.063,1.074-5.435,1.828-8.011-1.149-8.118-1.276a.94.94,0,0,1,1.434-1.216c.09.1,1.939,2.105,6.084.71,5.129-1.726,8.662-2.434,11.549-.95l.055.03,3.366,2.023a.94.94,0,0,1-.486,1.746Z"/><path class="a" d="M397.862,116.155a.936.936,0,0,1-.483-.134l-3.338-2.007c-2.285-1.156-5.546-.446-10.063,1.074-5.435,1.829-8.011-1.148-8.118-1.276A.94.94,0,0,1,377.3,112.6c.09.1,1.94,2.1,6.083.709,5.128-1.725,8.662-2.434,11.549-.95l.055.03,3.366,2.024a.94.94,0,0,1-.486,1.745Z"/><path class="b" d="M393.935,95.159l-7.088-.01a.7.7,0,0,0-.646.429L380.25,109.79a.324.324,0,0,0,.3.449l4.972.007a.313.313,0,0,1,.292.426l-4.075,10.608a.222.222,0,0,0,.379.22l11.9-14.584a.3.3,0,0,0-.238-.491l-6,.086a.268.268,0,0,1-.231-.41L394.175,95.6A.284.284,0,0,0,393.935,95.159Z"/><path class="c" d="M381.946,122.366a1.008,1.008,0,0,1-.94-1.367l3.831-9.971-4.29-.006a1.107,1.107,0,0,1-1.02-1.535l5.952-14.211a1.478,1.478,0,0,1,1.367-.91h0l7.087.009a1.068,1.068,0,0,1,.9,1.637l-6.115,9.7,5.047-.072a1.086,1.086,0,0,1,.992.612,1.075,1.075,0,0,1-.137,1.158L382.723,122A1,1,0,0,1,381.946,122.366Zm-.707-12.909,4.282,0a1.1,1.1,0,0,1,1.023,1.491l-2.819,7.337,9.032-11.067-4.962.072a1.051,1.051,0,0,1-.9-1.612l6.14-9.742-6.129-.008Zm12.695-13.515Z"/></g></svg>