<svg xmlns="http://www.w3.org/2000/svg" width="35" height="35" viewBox="0 0 35 35"><defs><style>.a,.b,.d{fill:none;}.a,.b{stroke:#026bb9;}.b{stroke-width:2.5px;}.c{stroke:none;}</style></defs><g transform="translate(-882 -1201)"><g class="a" transform="translate(882 1201)"><rect class="c" width="35" height="35" rx="5"/><rect class="d" x="0.5" y="0.5" width="34" height="34" rx="4.5"/></g><g transform="translate(892 1212)"><path class="b" d="M274.995,309.1a3.924,3.924,0,0,0-7.219-2.131.335.335,0,0,1-.562,0,3.923,3.923,0,1,0-5.838,5.117l.017.016,5.978,5.939a.187.187,0,0,0,.133.055.189.189,0,0,0,.134-.055l6.209-6.169h0a3.906,3.906,0,0,0,1.148-2.77Z" transform="translate(-259.995 -305.174)"/></g></g></svg>