<svg xmlns="http://www.w3.org/2000/svg" width="50" height="40" viewBox="0 0 50 40"><defs><style>.a{fill:#231f20;}.b{fill:#fff;}.c{fill:#026bb9;}</style></defs><g transform="translate(-527 -2611)"><g transform="translate(527 2611)"><g transform="translate(0 4.283)"><path class="a" d="M377.824,647.359a2.787,2.787,0,0,1-2.177-4.506l6.723-8.619a3.092,3.092,0,0,1,2.425-1.176h29.854a3.07,3.07,0,0,1,2.343,1.074l7.4,8.673a2.748,2.748,0,0,1,.4,2.973,2.709,2.709,0,0,1-2.431,1.581Zm6.971-11.982a.706.706,0,0,0-.554.268l-6.723,8.62a.513.513,0,0,0-.049.542.374.374,0,0,0,.345.233h44.494a.352.352,0,0,0,.336-.225.482.482,0,0,0-.063-.52l-7.4-8.673a.7.7,0,0,0-.536-.245Z" transform="translate(-375.053 -633.058)"/></g><g transform="translate(7.846)"><path class="a" d="M413.844,635.377H385.432a2.951,2.951,0,0,1-2.947-2.948v-.706a2.951,2.951,0,0,1,2.947-2.948h28.412a2.951,2.951,0,0,1,2.948,2.948v.706A2.951,2.951,0,0,1,413.844,635.377Zm-28.412-4.283a.637.637,0,0,0-.628.629v.706a.637.637,0,0,0,.628.629h28.412a.636.636,0,0,0,.628-.629v-.706a.637.637,0,0,0-.628-.629Z" transform="translate(-382.485 -628.775)"/></g><g transform="translate(7.846 16.397)"><path class="a" d="M416.792,664.3H382.485V645.172h34.307ZM384.8,661.986h29.668V647.491H384.8Z" transform="translate(-382.485 -645.172)"/></g><g transform="translate(13.464 21.615)"><rect class="b" width="5.605" height="11.409" rx="2.759" transform="translate(1.16 1.159)"/><path class="c" d="M393.417,664.117h-2.406a2.762,2.762,0,0,1-2.759-2.759v-8.209a2.762,2.762,0,0,1,2.759-2.759h2.406a2.762,2.762,0,0,1,2.759,2.759v8.209A2.761,2.761,0,0,1,393.417,664.117Zm-2.406-11.408a.447.447,0,0,0-.44.44v8.209a.447.447,0,0,0,.44.44h2.406a.446.446,0,0,0,.44-.44v-8.209a.446.446,0,0,0-.44-.44Z" transform="translate(-388.252 -650.39)"/></g><g transform="translate(24.642 21.615)"><rect class="b" width="9.544" height="6.378" rx="2.759" transform="translate(1.159 1.159)"/><path class="c" d="M408.264,659.087h-6.345a2.762,2.762,0,0,1-2.759-2.76v-3.178a2.762,2.762,0,0,1,2.759-2.759h6.345a2.763,2.763,0,0,1,2.76,2.759v3.178A2.763,2.763,0,0,1,408.264,659.087Zm-6.345-6.378a.447.447,0,0,0-.44.44v3.178a.447.447,0,0,0,.44.441h6.345a.446.446,0,0,0,.44-.441v-3.178a.446.446,0,0,0-.44-.44Z" transform="translate(-399.16 -650.39)"/></g><g transform="translate(6.032 33.023)"><path class="a" d="M416.008,668.775H384.1a2.984,2.984,0,0,1-3.013-2.947v-1.082A2.984,2.984,0,0,1,384.1,661.8h31.91a2.984,2.984,0,0,1,3.013,2.948v1.082A2.984,2.984,0,0,1,416.008,668.775Zm-31.91-4.658a.644.644,0,0,0-.642.629v1.082a.643.643,0,0,0,.642.628h31.91a.644.644,0,0,0,.642-.628v-1.082a.644.644,0,0,0-.642-.629Z" transform="translate(-381.085 -661.798)"/></g><g transform="translate(7.088 4.282)"><path class="a" d="M383.3,647.491a1.16,1.16,0,0,1-1.028-1.7l6.3-12.114a1.16,1.16,0,0,1,2.058,1.07l-6.3,12.114A1.161,1.161,0,0,1,383.3,647.491Z" transform="translate(-382.141 -633.057)"/></g><g transform="translate(17.754 4.283)"><path class="a" d="M393.641,646.586a1.2,1.2,0,0,1-.278-.033,1.159,1.159,0,0,1-.849-1.4l2.754-11.21a1.16,1.16,0,1,1,2.252.554L394.766,645.7A1.16,1.16,0,0,1,393.641,646.586Z" transform="translate(-392.48 -633.058)"/></g><g transform="translate(34.479 4.324)"><path class="a" d="M416.163,647.533a1.161,1.161,0,0,1-1.03-.625l-6.3-12.114a1.16,1.16,0,1,1,2.058-1.07l6.3,12.114a1.16,1.16,0,0,1-1.028,1.7Z" transform="translate(-408.704 -633.099)"/></g><g transform="translate(27.386 4.777)"><path class="a" d="M405.847,647.081a1.159,1.159,0,0,1-1.125-.883l-2.754-11.209a1.16,1.16,0,1,1,2.252-.554l2.754,11.21a1.16,1.16,0,0,1-.849,1.4A1.211,1.211,0,0,1,405.847,647.081Z" transform="translate(-401.934 -633.552)"/></g></g></g></svg>