<svg xmlns="http://www.w3.org/2000/svg" width="29.004" height="28" viewBox="0 0 29.004 28"><defs><style>.a{fill:#fff;}.b{fill:#231f20;}.c{fill:#026bb9;}</style></defs><g transform="translate(-669 -469)"><g transform="translate(224.219 361.691)"><path class="a" d="M466.49,116.461l6.392,11.783a.406.406,0,0,1-.07.48l-.893.893a.344.344,0,0,1-.49,0l-9.175-9.306Z"/><path class="b" d="M471.675,130.574h0a1.193,1.193,0,0,1-.852-.358l-9.8-9.941,5.7-5.181,6.912,12.742a1.267,1.267,0,0,1-.217,1.493l-.893.893A1.19,1.19,0,0,1,471.675,130.574Zm-8.185-10.231,8.187,8.3.292-.292-5.711-10.527Z"/><path class="a" d="M463.488,114.6l-11.782-6.392a.4.4,0,0,0-.48.07l-.893.893a.345.345,0,0,0,0,.49l9.307,9.174Z"/><path class="b" d="M459.675,120.075l-9.941-9.8a1.2,1.2,0,0,1-.007-1.705l.893-.894a1.272,1.272,0,0,1,1.494-.217l12.741,6.912ZM451.3,109.416l8.306,8.188,2.514-2.768-10.528-5.711Z"/><path class="a" d="M459.883,132.134h0a.746.746,0,0,1-1.06-.166l-3.264-4.645a.744.744,0,0,1,.189-1.045c.5-.337,1.03-.713,1.6-1.13l.18-.131a.748.748,0,0,1,1.167.422l1.459,5.921A.747.747,0,0,1,459.883,132.134Z"/><path class="b" d="M459.438,133.141a1.563,1.563,0,0,1-.254-.02,1.586,1.586,0,0,1-1.061-.661l-3.265-4.645a1.6,1.6,0,0,1,.409-2.245c.481-.326,1.013-.7,1.581-1.114l.154-.111a1.618,1.618,0,0,1,1.524-.23,1.6,1.6,0,0,1,1.005,1.119l1.458,5.921a1.6,1.6,0,0,1-.59,1.662h0A1.587,1.587,0,0,1,459.438,133.141Zm-3.115-6.219L459.187,131l-1.279-5.195-.056.041C457.308,126.238,456.794,126.6,456.323,126.922Z"/><path class="a" d="M454.89,122.222a.722.722,0,0,1,.406,1.128c-.043.058-.085.116-.126.173q-.6.831-1.091,1.55a.718.718,0,0,1-1.009.182l-4.486-3.152a.72.72,0,0,1-.161-1.024h0a.72.72,0,0,1,.747-.265Z"/><path class="b" d="M453.482,126.243a1.568,1.568,0,0,1-.9-.287l-4.486-3.153a1.576,1.576,0,0,1,1.283-2.82l5.72,1.408a1.578,1.578,0,0,1,.892,2.464l-.125.171c-.394.543-.756,1.057-1.075,1.527a1.563,1.563,0,0,1-1.019.664A1.537,1.537,0,0,1,453.482,126.243Zm-3.815-4.426,3.782,2.659c.31-.453.655-.942,1.028-1.456l.012-.016Zm5.017,1.236h0Z"/><path class="a" d="M469.605,110.907a2.975,2.975,0,0,1,.048,4.145c-.187.17-4,3.645-8.11,7-4.829,3.938-7.356,5.495-8.655,6.1-.012.006-.026.009-.038.016l0,0-.01,0c-.243.111-.608-.255-.5-.5l0-.011,0,0a.345.345,0,0,0,.017-.04c.6-1.3,2.159-3.826,6.094-8.65,3.356-4.114,6.833-7.926,7-8.113A2.975,2.975,0,0,1,469.605,110.907Z"/><path class="b" d="M452.738,129.049a1.266,1.266,0,0,1-.888-.385,1.2,1.2,0,0,1-.292-1.341l.038-.08c.863-1.86,2.951-4.832,6.2-8.812,3.37-4.131,6.887-7.987,7.035-8.149l.028-.03a3.846,3.846,0,0,1,5.354.05h0a3.846,3.846,0,0,1,.05,5.353l-.031.029c-.161.148-4.015,3.662-8.146,7.032a52.084,52.084,0,0,1-8.715,6.153l0,0-.165.075A1.118,1.118,0,0,1,452.738,129.049Zm.432-.09-.012,0Zm12.908-17.506c-.29.317-3.693,4.058-6.957,8.06a66.187,66.187,0,0,0-5.255,7.133A66.242,66.242,0,0,0,461,121.39c4-3.264,7.739-6.665,8.058-6.955a2.11,2.11,0,0,0-2.982-2.982Z"/><line class="a" x1="2.281" y2="2.241" transform="translate(450.717 116.373)"/><path class="c" d="M450.716,119.469a.855.855,0,0,1-.6-1.466l2.28-2.241a.856.856,0,1,1,1.2,1.221l-2.281,2.241A.85.85,0,0,1,450.716,119.469Z"/><line class="a" x1="4.636" y2="4.555" transform="translate(445.637 113.378)"/><path class="c" d="M445.637,118.789a.856.856,0,0,1-.6-1.466l4.636-4.555a.856.856,0,0,1,1.2,1.221l-4.636,4.555A.856.856,0,0,1,445.637,118.789Z"/><line class="a" x1="2.278" y2="2.244" transform="translate(462.613 127.119)"/><path class="c" d="M462.613,130.219a.856.856,0,0,1-.6-1.466l2.278-2.244a.856.856,0,1,1,1.2,1.22l-2.277,2.244A.855.855,0,0,1,462.613,130.219Z"/><line class="a" x1="4.63" y2="4.561" transform="translate(463.211 129.892)"/><path class="c" d="M463.211,135.309a.856.856,0,0,1-.6-1.466l4.629-4.561a.856.856,0,1,1,1.2,1.219l-4.629,4.562A.855.855,0,0,1,463.211,135.309Z"/></g></g></svg>