<svg xmlns="http://www.w3.org/2000/svg" width="25.036" height="28" viewBox="0 0 25.036 28"><defs><style>.a{fill:#fff;}.b{fill:#231f20;}.c{fill:#026bb9;}</style></defs><g transform="translate(-671 -462)"><g transform="translate(584.295 393.333)"><rect class="a" width="17.459" height="26.353" rx="8.49" transform="translate(93.458 69.49)"/><path class="b" d="M108.121,96.667H96.255a3.624,3.624,0,0,1-3.62-3.62V72.287a3.624,3.624,0,0,1,3.62-3.62h11.866a3.624,3.624,0,0,1,3.62,3.62v20.76A3.624,3.624,0,0,1,108.121,96.667ZM96.255,70.314a1.975,1.975,0,0,0-1.973,1.973v20.76a1.975,1.975,0,0,0,1.973,1.972h11.866a1.975,1.975,0,0,0,1.973-1.972V72.287a1.975,1.975,0,0,0-1.973-1.973Z"/><rect class="a" width="11.712" height="15.647" rx="4.245" transform="translate(96.332 74.843)"/><path class="b" d="M106.646,91.314H97.73a2.225,2.225,0,0,1-2.222-2.222V76.241a2.225,2.225,0,0,1,2.222-2.222h8.916a2.224,2.224,0,0,1,2.221,2.222V89.092A2.224,2.224,0,0,1,106.646,91.314ZM97.73,75.667a.582.582,0,0,0-.575.574V89.092a.576.576,0,0,0,.575.575h8.916a.576.576,0,0,0,.574-.575V76.241a.582.582,0,0,0-.574-.574Z"/><rect class="b" width="1.867" height="1.867" rx="0.933" transform="translate(101.254 92.062)"/><line class="a" x2="3.624" transform="translate(100.376 72.183)"/><path class="b" d="M104,73.006h-3.624a.823.823,0,0,1,0-1.647H104a.823.823,0,0,1,0,1.647Z"/><circle class="c" cx="5.929" cy="5.929" r="5.929" transform="translate(87.529 76.737)"/><path class="c" d="M93.458,89.419a6.752,6.752,0,1,1,6.753-6.752A6.761,6.761,0,0,1,93.458,89.419Zm0-11.858a5.106,5.106,0,1,0,5.106,5.106A5.111,5.111,0,0,0,93.458,77.561Z"/><path class="a" d="M90.054,80.534H91.8a1.541,1.541,0,0,1,.622.121,1.5,1.5,0,0,1,.478.326,1.431,1.431,0,0,1,.305.478,1.562,1.562,0,0,1,.107.575,1.507,1.507,0,0,1-.217.8,1.378,1.378,0,0,1-.608.543l.831,1.31H92.2l-.735-1.15h-.451v1.15h-.961Zm1.619,2.217a.634.634,0,0,0,.273-.059.65.65,0,0,0,.21-.157.722.722,0,0,0,.134-.228.816.816,0,0,0,0-.546.7.7,0,0,0-.134-.228.641.641,0,0,0-.483-.217h-.658v1.435Z"/><path class="a" d="M94.828,82.235a.867.867,0,0,1,.142-.184.929.929,0,0,1,.207-.154,1.234,1.234,0,0,1,.252-.1.979.979,0,0,1,.276-.039,1.364,1.364,0,0,1,.566.116,1.341,1.341,0,0,1,.442.314,1.392,1.392,0,0,1,.285.474,1.809,1.809,0,0,1,0,1.192,1.392,1.392,0,0,1-.285.474,1.33,1.33,0,0,1-.442.315,1.364,1.364,0,0,1-.566.115,1.016,1.016,0,0,1-.276-.038,1.3,1.3,0,0,1-.252-.1.985.985,0,0,1-.207-.151.735.735,0,0,1-.142-.187v1.7H93.92V81.826h.908Zm.687.291a.667.667,0,0,0-.281.059.692.692,0,0,0-.217.157.739.739,0,0,0-.139.232.818.818,0,0,0,0,.563.723.723,0,0,0,.139.231.676.676,0,0,0,.217.157.652.652,0,0,0,.281.059.62.62,0,0,0,.273-.059A.686.686,0,0,0,96,83.768a.723.723,0,0,0,.139-.231.817.817,0,0,0,0-.563A.739.739,0,0,0,96,82.742a.7.7,0,0,0-.214-.157A.634.634,0,0,0,95.515,82.526Z"/></g></g></svg>