<svg xmlns="http://www.w3.org/2000/svg" width="26" height="31.997" viewBox="0 0 26 31.997"><defs><style>.a{fill:#231f20;}.b{fill:#026bb9;}</style></defs><g transform="translate(-674 -3131)"><g transform="translate(674 3131)"><g transform="translate(0)"><path class="a" d="M432.493,531.1H413.835a3.687,3.687,0,0,1-3.658-3.708V512.642a3.676,3.676,0,0,1,3.658-3.685h.709v-1.164a8.623,8.623,0,1,1,17.246,0v1.164h.7a3.689,3.689,0,0,1,3.684,3.685V527.4A3.7,3.7,0,0,1,432.493,531.1Zm-18.658-19.938a1.49,1.49,0,0,0-1.465,1.476V527.4a1.484,1.484,0,0,0,1.465,1.5h18.658a1.5,1.5,0,0,0,1.492-1.5V512.642a1.485,1.485,0,0,0-1.492-1.476H429.6v-3.373a6.431,6.431,0,1,0-12.861,0v3.373Z" transform="translate(-410.177 -499.107)"/><g transform="translate(8.835 4.529)"><path class="a" d="M416.876,506.661a4.154,4.154,0,1,1,8.307,0v2.269h-8.307Z" transform="translate(-416.876 -502.504)"/></g></g><g transform="translate(9.688 15.309)"><path class="b" d="M422.014,516.981v3.769a.282.282,0,0,1-.295.276h-1.806a.277.277,0,0,1-.272-.276v-3.769a3.312,3.312,0,1,1,2.373,0Z" transform="translate(-417.516 -510.59)"/></g></g></g></svg>