<svg xmlns="http://www.w3.org/2000/svg" width="35" height="35" viewBox="0 0 35 35"><defs><style>.a,.d{fill:none;}.a,.b{stroke:#026bb9;}.b{fill:#026bb9;stroke-width:1.5px;}.c{stroke:none;}</style></defs><g transform="translate(-928 -1201)"><g class="a" transform="translate(928 1201)"><rect class="c" width="35" height="35" rx="5"/><rect class="d" x="0.5" y="0.5" width="34" height="34" rx="4.5"/></g><g transform="translate(737.297 794.147)"><path class="b" d="M212.6,432.567a3.1,3.1,0,1,1,3.1-3.1A3.1,3.1,0,0,1,212.6,432.567Zm0-5.412a2.314,2.314,0,1,0,2.314,2.313A2.316,2.316,0,0,0,212.6,427.155Z"/><rect class="b" width="4.981" height="0.785" transform="matrix(0.847, -0.531, 0.531, 0.847, 205.824, 423.694)"/><path class="b" d="M212.575,423.05a3.1,3.1,0,1,1,3.1-3.1A3.1,3.1,0,0,1,212.575,423.05Zm0-5.412a2.314,2.314,0,1,0,2.314,2.314A2.317,2.317,0,0,0,212.575,417.638Z"/><path class="b" d="M203.8,428.285a3.1,3.1,0,1,1,3.1-3.1A3.1,3.1,0,0,1,203.8,428.285Zm0-5.413a2.314,2.314,0,1,0,2.314,2.314A2.317,2.317,0,0,0,203.8,422.872Z"/><rect class="b" width="0.785" height="4.816" transform="matrix(0.464, -0.886, 0.886, 0.464, 205.71, 426.629)"/></g></g></svg>