<svg xmlns="http://www.w3.org/2000/svg" width="10" height="9.534" viewBox="0 0 10 9.534"><defs><style>.a{fill:#ffd800;}</style></defs><path class="a" d="M-826.984,705.261l1.356,2.746a.24.24,0,0,0,.184.134l3.031.441a.244.244,0,0,1,.136.417l-2.194,2.138a.242.242,0,0,0-.07.216l.518,3.019a.245.245,0,0,1-.355.258l-2.712-1.425a.24.24,0,0,0-.227,0l-2.711,1.425a.244.244,0,0,1-.355-.258l.518-3.019a.245.245,0,0,0-.071-.216L-832.129,709a.245.245,0,0,1,.135-.417l3.032-.441a.243.243,0,0,0,.184-.134l1.355-2.746A.245.245,0,0,1-826.984,705.261Z" transform="translate(832.203 -705.125)"/></svg>