<svg width="10" height="10" viewBox="0 0 10 10" fill="none" xmlns="http://www.w3.org/2000/svg">
<g clip-path="url(#clip0)">
<path d="M5.21902 0.135987L6.57504 2.88202C6.59222 2.91784 6.618 2.94884 6.65011 2.97223C6.68222 2.99562 6.71969 3.01063 6.75906 3.01599L9.79 3.45697C9.83529 3.46328 9.87793 3.48225 9.91299 3.5116C9.94805 3.54095 9.97413 3.57952 9.98831 3.62299C10.0025 3.66646 10.0042 3.71307 9.99319 3.75745C9.98218 3.80182 9.95891 3.84223 9.92605 3.87402L7.73202 6.01202C7.70358 6.03956 7.68233 6.07361 7.67013 6.11127C7.65793 6.14893 7.65512 6.18904 7.66201 6.22803L8.18002 9.24701C8.18762 9.29198 8.18254 9.3382 8.16531 9.38043C8.14808 9.42266 8.11938 9.45921 8.08248 9.48602C8.04559 9.51284 8.00193 9.52881 7.95645 9.53217C7.91096 9.53552 7.86546 9.52612 7.82504 9.50501L5.113 8.08002C5.0781 8.06129 5.03915 8.05145 4.99954 8.05145C4.95993 8.05145 4.92091 8.06129 4.88601 8.08002L2.17501 9.50501C2.13462 9.52653 2.08902 9.53626 2.04336 9.53308C1.9977 9.52991 1.95386 9.51397 1.91683 9.48706C1.87981 9.46015 1.85106 9.42337 1.83395 9.38092C1.81683 9.33847 1.81203 9.29207 1.82003 9.24701L2.33804 6.22803C2.34454 6.18897 2.34149 6.14889 2.32913 6.11127C2.31676 6.07365 2.29546 6.03961 2.26705 6.01202L0.0739999 3.875C0.0415387 3.84311 0.018619 3.8028 0.00777675 3.75861C-0.00306554 3.71441 -0.00135665 3.66805 0.0126596 3.62476C0.0266758 3.58146 0.0524357 3.54295 0.0871224 3.51349C0.121809 3.48403 0.164016 3.46483 0.20901 3.45801L3.24105 3.01703C3.28033 3.01141 3.31762 2.99626 3.3497 2.9729C3.38177 2.94954 3.40761 2.91866 3.42501 2.883L4.78005 0.137025C4.80023 0.0960896 4.83141 0.0615623 4.87014 0.0374152C4.90887 0.0132681 4.95359 0.00040977 4.99923 0.000305809C5.04487 0.000201848 5.08961 0.0128955 5.12844 0.0368659C5.16728 0.0608363 5.19865 0.0951444 5.21902 0.135987Z" fill="#EAEAEA"/>
</g>
<defs>
<clipPath id="clip0">
<rect width="10" height="9.534" fill="white"/>
</clipPath>
</defs>
</svg>
