<svg xmlns="http://www.w3.org/2000/svg" width="32" height="32" viewBox="0 0 32 32"><defs><style>.a{fill:#026bb9;}</style></defs><g transform="translate(-672 -3095)"><g transform="translate(672 3095)"><g transform="translate(7.502 9.676)"><path class="a" d="M521.384,732.693l-3.875-4.233a.918.918,0,0,1,.073-1.315.966.966,0,0,1,1.344.072l2.649,2.895,7.451-6.079a.965.965,0,0,1,1.34.12.917.917,0,0,1-.121,1.311Z" transform="translate(-517.267 -723.817)"/></g><g transform="translate(0 0)"><path d="M525.85,744.789a14.114,14.114,0,1,1,14.174-14.114A14.16,14.16,0,0,1,525.85,744.789Zm0-25.594a11.48,11.48,0,1,0,11.528,11.48A11.517,11.517,0,0,0,525.85,719.195Z" transform="translate(-511.676 -716.56)"/><g transform="translate(22.061 21.823)"><path d="M536.755,743.1a1.316,1.316,0,0,1-.947-.4l-7.3-7.543a1.317,1.317,0,1,1,1.892-1.832l7.3,7.543a1.317,1.317,0,0,1-.945,2.233Z" transform="translate(-528.132 -732.927)"/></g></g></g></g></svg>