<svg xmlns="http://www.w3.org/2000/svg" width="29.159" height="24" viewBox="0 0 29.159 24"><path d="M738.5,1254.149a12.021,12.021,0,0,1-2.948.841c.474-.08,1.17-.938,1.45-1.286a5.4,5.4,0,0,0,.978-1.784c.026-.051.045-.115-.006-.154a.172.172,0,0,0-.157.013,15.02,15.02,0,0,1-3.5,1.338.232.232,0,0,1-.241-.064,2.75,2.75,0,0,0-.306-.312,6.18,6.18,0,0,0-1.693-1.038,5.9,5.9,0,0,0-2.6-.418,6.213,6.213,0,0,0-2.464.7,6.337,6.337,0,0,0-1.988,1.624,6.093,6.093,0,0,0-1.188,2.378,6.446,6.446,0,0,0-.062,2.51c.018.14.006.159-.121.14-4.8-.714-8.783-2.433-12.014-6.115-.14-.159-.216-.159-.331.013-1.414,2.119-.728,5.524,1.038,7.2.236.223.478.446.739.649a6.121,6.121,0,0,1-2.318-.649c-.141-.089-.211-.038-.224.121a3.7,3.7,0,0,0,.038.688,6.162,6.162,0,0,0,3.8,4.911,3.619,3.619,0,0,0,.771.236,6.906,6.906,0,0,1-2.274.07c-.166-.032-.229.051-.166.21a6.393,6.393,0,0,0,4.777,4c.217.038.433.038.651.089-.013.02-.026.02-.039.039-.536.818-2.4,1.426-3.262,1.729a11.7,11.7,0,0,1-4.955.634c-.267-.039-.323-.036-.395,0s-.009.109.076.178c.338.223.682.421,1.032.612a16.434,16.434,0,0,0,3.313,1.325c5.952,1.643,12.657.435,17.126-4.005,3.51-3.487,4.74-8.3,4.74-13.111,0-.189.223-.293.355-.392a11.577,11.577,0,0,0,2.331-2.424.736.736,0,0,0,.154-.465v-.025C738.621,1254.072,738.62,1254.095,738.5,1254.149Z" transform="translate(-709.462 -1251.273)"/></svg>